<?xml version="1.0" encoding="UTF-8"?>
<svg id="Capa_1" xmlns="http://www.w3.org/2000/svg" viewBox="0 0 617 1080">
  <defs>
    <style>
      .cls-1 {
        fill: #fff;
      }
    </style>
  </defs>
  <path class="cls-1" d="M575.06,756.86l-.56-.94c-24.78-41.51-62.02-71.51-105.1-86.17,2.23-2.16,4.42-4.37,6.58-6.64,57.18-60.37,67.06-152.75,23.98-224.73l-.41-.67c-32.43-54.17-88.52-86.51-150.05-86.51H73.76v-95.33c0-97.86,79.62-177.48,177.47-177.48s177.48,79.62,177.48,177.48h62.38c0-132.26-107.6-239.86-239.87-239.86S11.38,123.6,11.38,255.86v376.62h0c0,33.87,16.37,64.16,42.75,79.05l2.38,1.33c10.55,5.97,22.38,9.12,34.22,9.12h96.73v-62.38h-96.73c-1.11,0-2.3-.35-3.58-1.07l-2.39-1.35c-5.47-3.08-10.99-12.55-11-24.7h0v-218.91h275.74c39.39,0,75.48,21,96.58,56.25l.41.67c28.72,47.99,22.23,109.55-15.8,149.7-23.72,25.05-53.08,39.41-80.55,39.41h-55.55v62.38h113.32c46.13,0,88.38,24.64,112.97,65.83l.56.94c33.58,56.22,25.98,128.35-18.46,175.39-25.26,26.74-58.84,41.47-94.55,41.47h-112.96v62.38h112.96c52.28,0,103.27-22.24,139.89-61.01,63.53-67.24,74.5-170.13,26.73-250.13Z"/>
</svg>